<svg width="142" height="37" viewBox="0 0 142 37" fill="none" xmlns="http://www.w3.org/2000/svg">
<line x1="1" x2="1" y2="37" stroke="#9F9F9F" stroke-width="2"/>
<path d="M41.824 21.52H36.96L36.064 24H34.528L38.56 12.912H40.24L44.256 24H42.72L41.824 21.52ZM41.408 20.336L39.392 14.704L37.376 20.336H41.408ZM49.1173 24.144C48.4453 24.144 47.8426 24.032 47.3093 23.808C46.7759 23.5733 46.3546 23.2533 46.0453 22.848C45.7359 22.432 45.5653 21.9573 45.5333 21.424H47.0373C47.0799 21.8613 47.2826 22.2187 47.6453 22.496C48.0186 22.7733 48.5039 22.912 49.1013 22.912C49.6559 22.912 50.0933 22.7893 50.4133 22.544C50.7333 22.2987 50.8933 21.9893 50.8933 21.616C50.8933 21.232 50.7226 20.9493 50.3813 20.768C50.0399 20.576 49.5119 20.3893 48.7973 20.208C48.1466 20.0373 47.6133 19.8667 47.1973 19.696C46.7919 19.5147 46.4399 19.2533 46.1413 18.912C45.8533 18.56 45.7093 18.1013 45.7093 17.536C45.7093 17.088 45.8426 16.6773 46.1093 16.304C46.3759 15.9307 46.7546 15.6373 47.2453 15.424C47.7359 15.2 48.2959 15.088 48.9253 15.088C49.8959 15.088 50.6799 15.3333 51.2773 15.824C51.8746 16.3147 52.1946 16.9867 52.2373 17.84H50.7813C50.7493 17.3813 50.5626 17.0133 50.2213 16.736C49.8906 16.4587 49.4426 16.32 48.8773 16.32C48.3546 16.32 47.9386 16.432 47.6293 16.656C47.3199 16.88 47.1653 17.1733 47.1653 17.536C47.1653 17.824 47.2559 18.064 47.4373 18.256C47.6293 18.4373 47.8639 18.5867 48.1413 18.704C48.4293 18.8107 48.8239 18.9333 49.3253 19.072C49.9546 19.2427 50.4666 19.4133 50.8613 19.584C51.2559 19.744 51.5919 19.9893 51.8693 20.32C52.1573 20.6507 52.3066 21.0827 52.3173 21.616C52.3173 22.096 52.1839 22.528 51.9173 22.912C51.6506 23.296 51.2719 23.6 50.7813 23.824C50.3013 24.0373 49.7466 24.144 49.1173 24.144ZM57.9886 15.088C58.746 15.088 59.4073 15.2533 59.9726 15.584C60.5486 15.9147 60.9753 16.3307 61.2526 16.832V15.232H62.7246V24.192C62.7246 24.992 62.554 25.7013 62.2126 26.32C61.8713 26.9493 61.3806 27.44 60.7406 27.792C60.1113 28.144 59.3753 28.32 58.5326 28.32C57.3806 28.32 56.4206 28.048 55.6526 27.504C54.8846 26.96 54.4313 26.2187 54.2926 25.28H55.7326C55.8926 25.8133 56.2233 26.24 56.7246 26.56C57.226 26.8907 57.8286 27.056 58.5326 27.056C59.3326 27.056 59.9833 26.8053 60.4846 26.304C60.9966 25.8027 61.2526 25.0987 61.2526 24.192V22.352C60.9646 22.864 60.538 23.2907 59.9726 23.632C59.4073 23.9733 58.746 24.144 57.9886 24.144C57.21 24.144 56.5006 23.952 55.8606 23.568C55.2313 23.184 54.7353 22.6453 54.3726 21.952C54.01 21.2587 53.8286 20.4693 53.8286 19.584C53.8286 18.688 54.01 17.904 54.3726 17.232C54.7353 16.5493 55.2313 16.0213 55.8606 15.648C56.5006 15.2747 57.21 15.088 57.9886 15.088ZM61.2526 19.6C61.2526 18.9387 61.1193 18.3627 60.8526 17.872C60.586 17.3813 60.2233 17.008 59.7646 16.752C59.3166 16.4853 58.8206 16.352 58.2766 16.352C57.7326 16.352 57.2366 16.48 56.7886 16.736C56.3406 16.992 55.9833 17.3653 55.7166 17.856C55.45 18.3467 55.3166 18.9227 55.3166 19.584C55.3166 20.256 55.45 20.8427 55.7166 21.344C55.9833 21.8347 56.3406 22.2133 56.7886 22.48C57.2366 22.736 57.7326 22.864 58.2766 22.864C58.8206 22.864 59.3166 22.736 59.7646 22.48C60.2233 22.2133 60.586 21.8347 60.8526 21.344C61.1193 20.8427 61.2526 20.2613 61.2526 19.6ZM64.6411 19.584C64.6411 18.688 64.8225 17.904 65.1851 17.232C65.5478 16.5493 66.0438 16.0213 66.6731 15.648C67.3131 15.2747 68.0225 15.088 68.8011 15.088C69.5691 15.088 70.2358 15.2533 70.8011 15.584C71.3665 15.9147 71.7878 16.3307 72.0651 16.832V15.232H73.5371V24H72.0651V22.368C71.7771 22.88 71.3451 23.3067 70.7691 23.648C70.2038 23.9787 69.5425 24.144 68.7851 24.144C68.0065 24.144 67.3025 23.952 66.6731 23.568C66.0438 23.184 65.5478 22.6453 65.1851 21.952C64.8225 21.2587 64.6411 20.4693 64.6411 19.584ZM72.0651 19.6C72.0651 18.9387 71.9318 18.3627 71.6651 17.872C71.3985 17.3813 71.0358 17.008 70.5771 16.752C70.1291 16.4853 69.6331 16.352 69.0891 16.352C68.5451 16.352 68.0491 16.48 67.6011 16.736C67.1531 16.992 66.7958 17.3653 66.5291 17.856C66.2625 18.3467 66.1291 18.9227 66.1291 19.584C66.1291 20.256 66.2625 20.8427 66.5291 21.344C66.7958 21.8347 67.1531 22.2133 67.6011 22.48C68.0491 22.736 68.5451 22.864 69.0891 22.864C69.6331 22.864 70.1291 22.736 70.5771 22.48C71.0358 22.2133 71.3985 21.8347 71.6651 21.344C71.9318 20.8427 72.0651 20.2613 72.0651 19.6ZM75.4536 19.584C75.4536 18.688 75.635 17.904 75.9976 17.232C76.3603 16.5493 76.8563 16.0213 77.4856 15.648C78.1256 15.2747 78.835 15.088 79.6136 15.088C80.3816 15.088 81.0483 15.2533 81.6136 15.584C82.179 15.9147 82.6003 16.3307 82.8776 16.832V15.232H84.3496V24H82.8776V22.368C82.5896 22.88 82.1576 23.3067 81.5816 23.648C81.0163 23.9787 80.355 24.144 79.5976 24.144C78.819 24.144 78.115 23.952 77.4856 23.568C76.8563 23.184 76.3603 22.6453 75.9976 21.952C75.635 21.2587 75.4536 20.4693 75.4536 19.584ZM82.8776 19.6C82.8776 18.9387 82.7443 18.3627 82.4776 17.872C82.211 17.3813 81.8483 17.008 81.3896 16.752C80.9416 16.4853 80.4456 16.352 79.9016 16.352C79.3576 16.352 78.8616 16.48 78.4136 16.736C77.9656 16.992 77.6083 17.3653 77.3416 17.856C77.075 18.3467 76.9416 18.9227 76.9416 19.584C76.9416 20.256 77.075 20.8427 77.3416 21.344C77.6083 21.8347 77.9656 22.2133 78.4136 22.48C78.8616 22.736 79.3576 22.864 79.9016 22.864C80.4456 22.864 80.9416 22.736 81.3896 22.48C81.8483 22.2133 82.211 21.8347 82.4776 21.344C82.7443 20.8427 82.8776 20.2613 82.8776 19.6ZM88.2661 16.656C88.5221 16.1547 88.8848 15.7653 89.3541 15.488C89.8341 15.2107 90.4155 15.072 91.0981 15.072V16.576H90.7141C89.0821 16.576 88.2661 17.4613 88.2661 19.232V24H86.8101V15.232H88.2661V16.656ZM92.2349 19.584C92.2349 18.688 92.4162 17.904 92.7789 17.232C93.1415 16.5493 93.6375 16.0213 94.2669 15.648C94.9069 15.2747 95.6215 15.088 96.4109 15.088C97.0935 15.088 97.7282 15.248 98.3149 15.568C98.9015 15.8773 99.3495 16.288 99.6589 16.8V12.16H101.131V24H99.6589V22.352C99.3709 22.8747 98.9442 23.3067 98.3789 23.648C97.8135 23.9787 97.1522 24.144 96.3949 24.144C95.6162 24.144 94.9069 23.952 94.2669 23.568C93.6375 23.184 93.1415 22.6453 92.7789 21.952C92.4162 21.2587 92.2349 20.4693 92.2349 19.584ZM99.6589 19.6C99.6589 18.9387 99.5255 18.3627 99.2589 17.872C98.9922 17.3813 98.6295 17.008 98.1709 16.752C97.7229 16.4853 97.2269 16.352 96.6829 16.352C96.1389 16.352 95.6429 16.48 95.1949 16.736C94.7469 16.992 94.3895 17.3653 94.1229 17.856C93.8562 18.3467 93.7229 18.9227 93.7229 19.584C93.7229 20.256 93.8562 20.8427 94.1229 21.344C94.3895 21.8347 94.7469 22.2133 95.1949 22.48C95.6429 22.736 96.1389 22.864 96.6829 22.864C97.2269 22.864 97.7229 22.736 98.1709 22.48C98.6295 22.2133 98.9922 21.8347 99.2589 21.344C99.5255 20.8427 99.6589 20.2613 99.6589 19.6ZM110.961 24.144C110.289 24.144 109.686 24.032 109.153 23.808C108.62 23.5733 108.198 23.2533 107.889 22.848C107.58 22.432 107.409 21.9573 107.377 21.424H108.881C108.924 21.8613 109.126 22.2187 109.489 22.496C109.862 22.7733 110.348 22.912 110.945 22.912C111.5 22.912 111.937 22.7893 112.257 22.544C112.577 22.2987 112.737 21.9893 112.737 21.616C112.737 21.232 112.566 20.9493 112.225 20.768C111.884 20.576 111.356 20.3893 110.641 20.208C109.99 20.0373 109.457 19.8667 109.041 19.696C108.636 19.5147 108.284 19.2533 107.985 18.912C107.697 18.56 107.553 18.1013 107.553 17.536C107.553 17.088 107.686 16.6773 107.953 16.304C108.22 15.9307 108.598 15.6373 109.089 15.424C109.58 15.2 110.14 15.088 110.769 15.088C111.74 15.088 112.524 15.3333 113.121 15.824C113.718 16.3147 114.038 16.9867 114.081 17.84H112.625C112.593 17.3813 112.406 17.0133 112.065 16.736C111.734 16.4587 111.286 16.32 110.721 16.32C110.198 16.32 109.782 16.432 109.473 16.656C109.164 16.88 109.009 17.1733 109.009 17.536C109.009 17.824 109.1 18.064 109.281 18.256C109.473 18.4373 109.708 18.5867 109.985 18.704C110.273 18.8107 110.668 18.9333 111.169 19.072C111.798 19.2427 112.31 19.4133 112.705 19.584C113.1 19.744 113.436 19.9893 113.713 20.32C114.001 20.6507 114.15 21.0827 114.161 21.616C114.161 22.096 114.028 22.528 113.761 22.912C113.494 23.296 113.116 23.6 112.625 23.824C112.145 24.0373 111.59 24.144 110.961 24.144ZM120.04 24.144C119.219 24.144 118.472 23.9573 117.8 23.584C117.139 23.2107 116.616 22.6827 116.232 22C115.859 21.3067 115.672 20.5067 115.672 19.6C115.672 18.704 115.864 17.9147 116.248 17.232C116.643 16.5387 117.176 16.0107 117.848 15.648C118.52 15.2747 119.272 15.088 120.104 15.088C120.936 15.088 121.688 15.2747 122.36 15.648C123.032 16.0107 123.56 16.5333 123.944 17.216C124.339 17.8987 124.536 18.6933 124.536 19.6C124.536 20.5067 124.334 21.3067 123.928 22C123.534 22.6827 122.995 23.2107 122.312 23.584C121.63 23.9573 120.872 24.144 120.04 24.144ZM120.04 22.864C120.563 22.864 121.054 22.7413 121.512 22.496C121.971 22.2507 122.339 21.8827 122.616 21.392C122.904 20.9013 123.048 20.304 123.048 19.6C123.048 18.896 122.91 18.2987 122.632 17.808C122.355 17.3173 121.992 16.9547 121.544 16.72C121.096 16.4747 120.611 16.352 120.088 16.352C119.555 16.352 119.064 16.4747 118.616 16.72C118.179 16.9547 117.827 17.3173 117.56 17.808C117.294 18.2987 117.16 18.896 117.16 19.6C117.16 20.3147 117.288 20.9173 117.544 21.408C117.811 21.8987 118.163 22.2667 118.6 22.512C119.038 22.7467 119.518 22.864 120.04 22.864ZM130.019 16.432H128.179V24H126.723V16.432H125.587V15.232H126.723V14.608C126.723 13.6267 126.973 12.912 127.475 12.464C127.987 12.0053 128.803 11.776 129.923 11.776V12.992C129.283 12.992 128.829 13.12 128.563 13.376C128.307 13.6213 128.179 14.032 128.179 14.608V15.232H130.019V16.432ZM131.172 19.584C131.172 18.688 131.354 17.904 131.716 17.232C132.079 16.5493 132.575 16.0213 133.204 15.648C133.844 15.2747 134.554 15.088 135.332 15.088C136.1 15.088 136.767 15.2533 137.332 15.584C137.898 15.9147 138.319 16.3307 138.596 16.832V15.232H140.068V24H138.596V22.368C138.308 22.88 137.876 23.3067 137.3 23.648C136.735 23.9787 136.074 24.144 135.316 24.144C134.538 24.144 133.834 23.952 133.204 23.568C132.575 23.184 132.079 22.6453 131.716 21.952C131.354 21.2587 131.172 20.4693 131.172 19.584ZM138.596 19.6C138.596 18.9387 138.463 18.3627 138.196 17.872C137.93 17.3813 137.567 17.008 137.108 16.752C136.66 16.4853 136.164 16.352 135.62 16.352C135.076 16.352 134.58 16.48 134.132 16.736C133.684 16.992 133.327 17.3653 133.06 17.856C132.794 18.3467 132.66 18.9227 132.66 19.584C132.66 20.256 132.794 20.8427 133.06 21.344C133.327 21.8347 133.684 22.2133 134.132 22.48C134.58 22.736 135.076 22.864 135.62 22.864C136.164 22.864 136.66 22.736 137.108 22.48C137.567 22.2133 137.93 21.8347 138.196 21.344C138.463 20.8427 138.596 20.2613 138.596 19.6Z" fill="black"/>
</svg>
