<svg width="191" height="64" viewBox="0 0 191 64" fill="none" xmlns="http://www.w3.org/2000/svg">
<path d="M0 15C0 6.71573 6.71573 0 15 0H176C184.284 0 191 6.71573 191 15V49C191 57.2843 184.284 64 176 64H15C6.71572 64 0 57.2843 0 49V15Z" fill="#0171D3"/>
<path d="M70.38 24.96V27.7H64.66V30.66H68.94V33.32H64.66V39H61.24V24.96H70.38ZM71.4975 33.4C71.4975 32.2533 71.7108 31.2467 72.1375 30.38C72.5775 29.5133 73.1708 28.8467 73.9175 28.38C74.6642 27.9133 75.4975 27.68 76.4175 27.68C77.2042 27.68 77.8908 27.84 78.4775 28.16C79.0775 28.48 79.5375 28.9 79.8575 29.42V27.84H83.2775V39H79.8575V37.42C79.5242 37.94 79.0575 38.36 78.4575 38.68C77.8708 39 77.1842 39.16 76.3975 39.16C75.4908 39.16 74.6642 38.9267 73.9175 38.46C73.1708 37.98 72.5775 37.3067 72.1375 36.44C71.7108 35.56 71.4975 34.5467 71.4975 33.4ZM79.8575 33.42C79.8575 32.5667 79.6175 31.8933 79.1375 31.4C78.6708 30.9067 78.0975 30.66 77.4175 30.66C76.7375 30.66 76.1575 30.9067 75.6775 31.4C75.2108 31.88 74.9775 32.5467 74.9775 33.4C74.9775 34.2533 75.2108 34.9333 75.6775 35.44C76.1575 35.9333 76.7375 36.18 77.4175 36.18C78.0975 36.18 78.6708 35.9333 79.1375 35.44C79.6175 34.9467 79.8575 34.2733 79.8575 33.42ZM85.0717 33.42C85.0717 32.26 85.3051 31.2467 85.7717 30.38C86.2517 29.5133 86.9117 28.8467 87.7517 28.38C88.6051 27.9133 89.5784 27.68 90.6717 27.68C92.0717 27.68 93.2384 28.0467 94.1717 28.78C95.1184 29.5133 95.7384 30.5467 96.0317 31.88H92.3917C92.0851 31.0267 91.4917 30.6 90.6117 30.6C89.9851 30.6 89.4851 30.8467 89.1117 31.34C88.7384 31.82 88.5517 32.5133 88.5517 33.42C88.5517 34.3267 88.7384 35.0267 89.1117 35.52C89.4851 36 89.9851 36.24 90.6117 36.24C91.4917 36.24 92.0851 35.8133 92.3917 34.96H96.0317C95.7384 36.2667 95.1184 37.2933 94.1717 38.04C93.2251 38.7867 92.0584 39.16 90.6717 39.16C89.5784 39.16 88.6051 38.9267 87.7517 38.46C86.9117 37.9933 86.2517 37.3267 85.7717 36.46C85.3051 35.5933 85.0717 34.58 85.0717 33.42ZM108.381 33.24C108.381 33.56 108.361 33.8933 108.321 34.24H100.581C100.634 34.9333 100.854 35.4667 101.241 35.84C101.641 36.2 102.128 36.38 102.701 36.38C103.554 36.38 104.148 36.02 104.481 35.3H108.121C107.934 36.0333 107.594 36.6933 107.101 37.28C106.621 37.8667 106.014 38.3267 105.281 38.66C104.548 38.9933 103.728 39.16 102.821 39.16C101.728 39.16 100.754 38.9267 99.9011 38.46C99.0478 37.9933 98.3811 37.3267 97.9011 36.46C97.4211 35.5933 97.1811 34.58 97.1811 33.42C97.1811 32.26 97.4144 31.2467 97.8811 30.38C98.3611 29.5133 99.0278 28.8467 99.8811 28.38C100.734 27.9133 101.714 27.68 102.821 27.68C103.901 27.68 104.861 27.9067 105.701 28.36C106.541 28.8133 107.194 29.46 107.661 30.3C108.141 31.14 108.381 32.12 108.381 33.24ZM104.881 32.34C104.881 31.7533 104.681 31.2867 104.281 30.94C103.881 30.5933 103.381 30.42 102.781 30.42C102.208 30.42 101.721 30.5867 101.321 30.92C100.934 31.2533 100.694 31.7267 100.601 32.34H104.881ZM113.605 29.42C113.925 28.9 114.385 28.48 114.985 28.16C115.585 27.84 116.272 27.68 117.045 27.68C117.965 27.68 118.799 27.9133 119.545 28.38C120.292 28.8467 120.879 29.5133 121.305 30.38C121.745 31.2467 121.965 32.2533 121.965 33.4C121.965 34.5467 121.745 35.56 121.305 36.44C120.879 37.3067 120.292 37.98 119.545 38.46C118.799 38.9267 117.965 39.16 117.045 39.16C116.259 39.16 115.572 39.0067 114.985 38.7C114.399 38.38 113.939 37.96 113.605 37.44V39H110.185V24.2H113.605V29.42ZM118.485 33.4C118.485 32.5467 118.245 31.88 117.765 31.4C117.299 30.9067 116.719 30.66 116.025 30.66C115.345 30.66 114.765 30.9067 114.285 31.4C113.819 31.8933 113.585 32.5667 113.585 33.42C113.585 34.2733 113.819 34.9467 114.285 35.44C114.765 35.9333 115.345 36.18 116.025 36.18C116.705 36.18 117.285 35.9333 117.765 35.44C118.245 34.9333 118.485 34.2533 118.485 33.4ZM128.84 39.16C127.746 39.16 126.76 38.9267 125.88 38.46C125.013 37.9933 124.326 37.3267 123.82 36.46C123.326 35.5933 123.08 34.58 123.08 33.42C123.08 32.2733 123.333 31.2667 123.84 30.4C124.346 29.52 125.04 28.8467 125.92 28.38C126.8 27.9133 127.786 27.68 128.88 27.68C129.973 27.68 130.96 27.9133 131.84 28.38C132.72 28.8467 133.413 29.52 133.92 30.4C134.426 31.2667 134.68 32.2733 134.68 33.42C134.68 34.5667 134.42 35.58 133.9 36.46C133.393 37.3267 132.693 37.9933 131.8 38.46C130.92 38.9267 129.933 39.16 128.84 39.16ZM128.84 36.2C129.493 36.2 130.046 35.96 130.5 35.48C130.966 35 131.2 34.3133 131.2 33.42C131.2 32.5267 130.973 31.84 130.52 31.36C130.08 30.88 129.533 30.64 128.88 30.64C128.213 30.64 127.66 30.88 127.22 31.36C126.78 31.8267 126.56 32.5133 126.56 33.42C126.56 34.3133 126.773 35 127.2 35.48C127.64 35.96 128.186 36.2 128.84 36.2ZM141.574 39.16C140.481 39.16 139.494 38.9267 138.614 38.46C137.747 37.9933 137.061 37.3267 136.554 36.46C136.061 35.5933 135.814 34.58 135.814 33.42C135.814 32.2733 136.067 31.2667 136.574 30.4C137.081 29.52 137.774 28.8467 138.654 28.38C139.534 27.9133 140.521 27.68 141.614 27.68C142.707 27.68 143.694 27.9133 144.574 28.38C145.454 28.8467 146.147 29.52 146.654 30.4C147.161 31.2667 147.414 32.2733 147.414 33.42C147.414 34.5667 147.154 35.58 146.634 36.46C146.127 37.3267 145.427 37.9933 144.534 38.46C143.654 38.9267 142.667 39.16 141.574 39.16ZM141.574 36.2C142.227 36.2 142.781 35.96 143.234 35.48C143.701 35 143.934 34.3133 143.934 33.42C143.934 32.5267 143.707 31.84 143.254 31.36C142.814 30.88 142.267 30.64 141.614 30.64C140.947 30.64 140.394 30.88 139.954 31.36C139.514 31.8267 139.294 32.5133 139.294 33.42C139.294 34.3133 139.507 35 139.934 35.48C140.374 35.96 140.921 36.2 141.574 36.2ZM156.048 39L152.648 34.32V39H149.228V24.2H152.648V32.38L156.028 27.84H160.248L155.608 33.44L160.288 39H156.048Z" fill="white"/>
<path d="M51.6538 33.25L52.2093 29.6305H48.7362V27.2816C48.7362 26.2914 49.2214 25.3262 50.7769 25.3262H52.3558V22.2445C52.3558 22.2445 50.9229 22 49.553 22C46.6929 22 44.8233 23.7336 44.8233 26.8719V29.6305H41.644V33.25H44.8233V42H48.7362V33.25H51.6538Z" fill="white"/>
</svg>
