<svg width="167" height="64" viewBox="0 0 167 64" fill="none" xmlns="http://www.w3.org/2000/svg">
<path d="M0.5 15C0.5 6.99187 6.99187 0.5 15 0.5H152C160.008 0.5 166.5 6.99187 166.5 15V49C166.5 57.0081 160.008 63.5 152 63.5H15C6.99188 63.5 0.5 57.0081 0.5 49V15Z" fill="white" stroke="black"/>
<path d="M73.56 29.4C73.3067 28.9333 72.94 28.58 72.46 28.34C71.9933 28.0867 71.44 27.96 70.8 27.96C69.6933 27.96 68.8067 28.3267 68.14 29.06C67.4733 29.78 67.14 30.7467 67.14 31.96C67.14 33.2533 67.4867 34.2667 68.18 35C68.8867 35.72 69.8533 36.08 71.08 36.08C71.92 36.08 72.6267 35.8667 73.2 35.44C73.7867 35.0133 74.2133 34.4 74.48 33.6H70.14V31.08H77.58V34.26C77.3267 35.1133 76.8933 35.9067 76.28 36.64C75.68 37.3733 74.9133 37.9667 73.98 38.42C73.0467 38.8733 71.9933 39.1 70.82 39.1C69.4333 39.1 68.1933 38.8 67.1 38.2C66.02 37.5867 65.1733 36.74 64.56 35.66C63.96 34.58 63.66 33.3467 63.66 31.96C63.66 30.5733 63.96 29.34 64.56 28.26C65.1733 27.1667 66.02 26.32 67.1 25.72C68.18 25.1067 69.4133 24.8 70.8 24.8C72.48 24.8 73.8933 25.2067 75.04 26.02C76.2 26.8333 76.9667 27.96 77.34 29.4H73.56ZM84.5544 39.16C83.461 39.16 82.4744 38.9267 81.5944 38.46C80.7277 37.9933 80.041 37.3267 79.5344 36.46C79.041 35.5933 78.7944 34.58 78.7944 33.42C78.7944 32.2733 79.0477 31.2667 79.5544 30.4C80.061 29.52 80.7544 28.8467 81.6344 28.38C82.5144 27.9133 83.501 27.68 84.5944 27.68C85.6877 27.68 86.6744 27.9133 87.5544 28.38C88.4344 28.8467 89.1277 29.52 89.6344 30.4C90.141 31.2667 90.3944 32.2733 90.3944 33.42C90.3944 34.5667 90.1344 35.58 89.6144 36.46C89.1077 37.3267 88.4077 37.9933 87.5144 38.46C86.6344 38.9267 85.6477 39.16 84.5544 39.16ZM84.5544 36.2C85.2077 36.2 85.761 35.96 86.2144 35.48C86.681 35 86.9144 34.3133 86.9144 33.42C86.9144 32.5267 86.6877 31.84 86.2344 31.36C85.7944 30.88 85.2477 30.64 84.5944 30.64C83.9277 30.64 83.3744 30.88 82.9344 31.36C82.4944 31.8267 82.2744 32.5133 82.2744 33.42C82.2744 34.3133 82.4877 35 82.9144 35.48C83.3544 35.96 83.901 36.2 84.5544 36.2ZM97.2888 39.16C96.1954 39.16 95.2088 38.9267 94.3288 38.46C93.4621 37.9933 92.7754 37.3267 92.2688 36.46C91.7754 35.5933 91.5288 34.58 91.5288 33.42C91.5288 32.2733 91.7821 31.2667 92.2887 30.4C92.7954 29.52 93.4888 28.8467 94.3688 28.38C95.2488 27.9133 96.2354 27.68 97.3288 27.68C98.4221 27.68 99.4088 27.9133 100.289 28.38C101.169 28.8467 101.862 29.52 102.369 30.4C102.875 31.2667 103.129 32.2733 103.129 33.42C103.129 34.5667 102.869 35.58 102.349 36.46C101.842 37.3267 101.142 37.9933 100.249 38.46C99.3688 38.9267 98.3821 39.16 97.2888 39.16ZM97.2888 36.2C97.9421 36.2 98.4954 35.96 98.9488 35.48C99.4154 35 99.6488 34.3133 99.6488 33.42C99.6488 32.5267 99.4221 31.84 98.9688 31.36C98.5288 30.88 97.9821 30.64 97.3288 30.64C96.6621 30.64 96.1088 30.88 95.6688 31.36C95.2288 31.8267 95.0088 32.5133 95.0088 33.42C95.0088 34.3133 95.2221 35 95.6488 35.48C96.0888 35.96 96.6354 36.2 97.2888 36.2ZM109.183 27.68C109.97 27.68 110.656 27.84 111.243 28.16C111.843 28.48 112.303 28.9 112.623 29.42V27.84H116.043V38.98C116.043 40.0067 115.836 40.9333 115.423 41.76C115.023 42.6 114.403 43.2667 113.563 43.76C112.736 44.2533 111.703 44.5 110.463 44.5C108.81 44.5 107.47 44.1067 106.443 43.32C105.416 42.5467 104.83 41.4933 104.683 40.16H108.063C108.17 40.5867 108.423 40.92 108.823 41.16C109.223 41.4133 109.716 41.54 110.303 41.54C111.01 41.54 111.57 41.3333 111.983 40.92C112.41 40.52 112.623 39.8733 112.623 38.98V37.4C112.29 37.92 111.83 38.3467 111.243 38.68C110.656 39 109.97 39.16 109.183 39.16C108.263 39.16 107.43 38.9267 106.683 38.46C105.936 37.98 105.343 37.3067 104.903 36.44C104.476 35.56 104.263 34.5467 104.263 33.4C104.263 32.2533 104.476 31.2467 104.903 30.38C105.343 29.5133 105.936 28.8467 106.683 28.38C107.43 27.9133 108.263 27.68 109.183 27.68ZM112.623 33.42C112.623 32.5667 112.383 31.8933 111.903 31.4C111.436 30.9067 110.863 30.66 110.183 30.66C109.503 30.66 108.923 30.9067 108.443 31.4C107.976 31.88 107.743 32.5467 107.743 33.4C107.743 34.2533 107.976 34.9333 108.443 35.44C108.923 35.9333 109.503 36.18 110.183 36.18C110.863 36.18 111.436 35.9333 111.903 35.44C112.383 34.9467 112.623 34.2733 112.623 33.42ZM121.937 24.2V39H118.517V24.2H121.937ZM134.936 33.24C134.936 33.56 134.916 33.8933 134.876 34.24H127.136C127.189 34.9333 127.409 35.4667 127.796 35.84C128.196 36.2 128.682 36.38 129.256 36.38C130.109 36.38 130.702 36.02 131.036 35.3H134.676C134.489 36.0333 134.149 36.6933 133.656 37.28C133.176 37.8667 132.569 38.3267 131.836 38.66C131.102 38.9933 130.282 39.16 129.376 39.16C128.282 39.16 127.309 38.9267 126.456 38.46C125.602 37.9933 124.936 37.3267 124.456 36.46C123.976 35.5933 123.736 34.58 123.736 33.42C123.736 32.26 123.969 31.2467 124.436 30.38C124.916 29.5133 125.582 28.8467 126.436 28.38C127.289 27.9133 128.269 27.68 129.376 27.68C130.456 27.68 131.416 27.9067 132.256 28.36C133.096 28.8133 133.749 29.46 134.216 30.3C134.696 31.14 134.936 32.12 134.936 33.24ZM131.436 32.34C131.436 31.7533 131.236 31.2867 130.836 30.94C130.436 30.5933 129.936 30.42 129.336 30.42C128.762 30.42 128.276 30.5867 127.876 30.92C127.489 31.2533 127.249 31.7267 127.156 32.34H131.436Z" fill="black"/>
<g clip-path="url(#clip0_0_877)">
<path d="M49.5312 32.2266C49.5312 37.7539 45.7461 41.6875 40.1562 41.6875C34.7969 41.6875 30.4688 37.3594 30.4688 32C30.4688 26.6406 34.7969 22.3125 40.1562 22.3125C42.7656 22.3125 44.9609 23.2695 46.6523 24.8477L44.0156 27.3828C40.5664 24.0547 34.1523 26.5547 34.1523 32C34.1523 35.3789 36.8516 38.1172 40.1562 38.1172C43.9922 38.1172 45.4297 35.3672 45.6562 33.9414H40.1562V30.6094H49.3789C49.4688 31.1055 49.5312 31.582 49.5312 32.2266Z" fill="black"/>
</g>
<defs>
<clipPath id="clip0_0_877">
<rect width="20" height="20" fill="white" transform="translate(30 22)"/>
</clipPath>
</defs>
</svg>
